<?xml version="1.0" standalone="no"?>
<!DOCTYPE svg PUBLIC "-//W3C//DTD SVG 20010904//EN"
 "http://www.w3.org/TR/2001/REC-SVG-20010904/DTD/svg10.dtd">
<svg version="1.0" xmlns="http://www.w3.org/2000/svg"
 width="400.000000pt" height="400.000000pt" viewBox="0 0 400.000000 400.000000"
 preserveAspectRatio="xMidYMid meet">

<g transform="translate(0.000000,400.000000) scale(0.100000,-0.100000)"
fill="#000000" stroke="none">
<path d="M2111 3828 c-67 -174 -77 -195 -134 -277 -113 -160 -301 -522 -407
-783 -29 -71 -55 -128 -59 -128 -4 0 -77 16 -162 35 -86 19 -234 47 -330 62
l-175 28 -133 153 c-73 84 -135 151 -138 149 -2 -3 37 -69 87 -147 50 -78 90
-143 88 -145 -3 -3 -259 20 -328 30 l-45 6 25 -25 c14 -13 80 -75 147 -138 67
-62 161 -156 209 -208 48 -52 157 -171 243 -263 86 -93 157 -172 159 -176 1
-4 -26 -13 -60 -20 -106 -21 -296 -80 -427 -132 -138 -55 -348 -159 -383 -190
l-23 -20 120 6 c73 4 148 2 190 -5 73 -11 237 -49 244 -56 3 -2 -55 -63 -128
-135 -131 -130 -249 -264 -310 -353 -33 -47 -29 -63 5 -24 26 29 250 208 321
256 32 22 109 69 172 105 l114 66 41 -21 c61 -31 147 -92 181 -128 l30 -31
-149 7 c-112 5 -147 4 -142 -4 4 -7 13 -12 21 -12 9 0 5 -20 -15 -77 -16 -43
-43 -120 -62 -172 l-33 -94 -60 -14 c-33 -7 -91 -23 -128 -34 l-69 -21 94 -62
93 -61 -113 -3 c-61 -1 -112 -5 -112 -8 0 -2 25 -34 55 -69 86 -102 78 -107
-235 -121 -106 -5 -120 -8 -185 -41 -119 -60 -205 -116 -205 -135 0 -14 10
-11 55 17 31 18 62 38 69 44 24 20 129 67 179 81 59 16 110 11 342 -34 170
-33 495 -76 578 -76 20 0 37 -2 37 -4 0 -2 -7 -33 -16 -67 -16 -62 -15 -172 1
-227 7 -22 7 -22 -102 -22 -133 0 -376 -29 -578 -69 -82 -17 -166 -32 -185
-34 -19 -2 -3 -5 36 -5 42 -1 120 8 190 22 124 25 337 52 487 61 l87 6 0 -46
0 -45 360 0 360 0 0 45 c0 26 -7 60 -16 78 -13 25 -16 50 -11 126 9 148 51
184 137 118 63 -48 210 -144 310 -205 114 -68 126 -82 112 -128 -9 -30 -8 -33
4 -23 10 8 14 8 14 0 0 -8 41 -11 131 -11 l130 0 27 32 c15 17 58 46 97 64 38
18 65 33 58 34 -18 0 -102 -38 -135 -62 -25 -17 -32 -18 -40 -7 -15 23 -4 249
15 285 26 51 191 146 277 160 35 6 39 3 99 -62 53 -58 60 -69 44 -75 -13 -5
-7 -8 22 -14 140 -24 325 -68 429 -102 40 -13 45 -18 31 -26 -12 -6 -35 -4
-74 6 -115 32 -117 32 -368 -50 -233 -76 -234 -76 -264 -118 l-31 -42 -49 18
c-27 11 -56 19 -64 19 -27 0 -16 -18 16 -25 20 -5 29 -11 25 -21 -4 -10 4 -13
36 -11 31 2 47 10 65 32 19 22 24 25 19 10 -6 -19 -5 -19 8 -3 15 20 32 23 41
8 3 -6 -5 -14 -19 -20 -30 -11 -35 -30 -8 -30 15 0 52 45 52 64 0 3 -13 6 -30
6 -16 0 -30 5 -30 11 0 18 64 38 106 33 27 -4 65 4 128 25 96 33 110 36 86 21
-25 -16 2 -11 55 10 28 10 43 20 35 20 -10 1 -9 4 5 10 28 12 43 12 25 -1 -18
-13 -12 -12 67 16 l51 18 79 -28 78 -29 -45 -19 c-33 -15 -48 -17 -61 -8 -27
16 -389 -106 -389 -131 0 -16 12 -18 135 -18 107 0 135 3 135 14 0 14 90 56
119 56 9 0 27 -16 40 -36 20 -29 26 -33 33 -19 5 8 14 13 19 10 5 -4 7 -11 4
-16 -4 -5 1 -9 9 -9 10 0 13 6 9 17 -5 16 -4 16 8 0 12 -14 26 -18 64 -15 l50
3 -37 19 c-20 11 -35 24 -31 29 3 5 -1 13 -8 18 -18 11 60 -1 81 -12 12 -7 10
-8 -7 -9 -29 0 -29 -10 2 -33 20 -14 40 -17 97 -15 l73 3 -63 33 c-34 18 -83
35 -108 39 -36 5 -44 9 -39 22 5 13 4 14 -6 4 -25 -25 -169 -10 -169 18 0 4
17 14 38 22 27 11 39 12 44 3 5 -6 8 1 8 16 0 20 -7 29 -27 37 -24 9 -18 10
38 8 118 -5 275 -100 298 -181 l9 -31 1 27 c1 19 -11 41 -34 67 l-35 39 22 15
c22 16 22 16 -9 6 -26 -9 -37 -7 -55 5 -21 15 -19 16 45 16 50 0 67 3 67 14 0
10 -25 15 -102 19 -91 4 -124 12 -277 62 l-173 58 -89 76 -89 76 22 17 c54 41
139 79 171 76 32 -3 32 -3 33 42 0 37 11 62 56 135 31 50 91 130 133 179 42
49 74 90 73 92 -8 8 -530 -207 -661 -272 -66 -33 -68 -33 -102 -17 -32 15 -39
15 -122 -5 -138 -33 -153 -35 -153 -23 0 6 32 104 70 218 39 114 70 211 70
216 0 5 -49 6 -112 2 -109 -6 -112 -5 -84 11 49 27 157 61 260 79 53 10 94 21
89 26 -14 13 -159 39 -223 39 -33 0 -60 4 -60 9 0 17 259 201 282 201 22 0
197 -61 373 -130 88 -35 181 -71 208 -81 26 -11 47 -17 47 -14 0 8 -140 98
-317 204 -95 57 -171 107 -168 111 2 4 18 13 34 19 32 14 68 5 294 -65 182
-57 177 -44 -25 72 -65 37 -116 70 -113 74 16 26 393 149 459 150 17 1 15 3
-10 14 -33 15 -265 81 -354 101 -72 17 -333 53 -433 61 l-78 6 32 56 c66 118
195 298 316 443 61 73 231 231 314 292 22 16 38 31 36 33 -2 2 -29 -1 -61 -7
-110 -20 -110 -10 4 64 58 37 98 67 89 67 -8 0 -88 -36 -178 -80 -159 -78
-166 -80 -299 -101 -249 -38 -491 -93 -620 -141 -29 -11 -60 -17 -68 -14 -17
7 -91 159 -153 314 -95 238 -157 508 -177 769 -4 56 -10 90 -16 87 -6 -4 -8 1
-5 12 8 28 19 124 15 124 -2 0 -24 -51 -47 -112z m-20 -180 c-48 -270 -87
-659 -83 -821 2 -42 -2 -86 -8 -97 -7 -12 -7 -20 -1 -20 5 0 10 -21 10 -47 0
-27 2 -61 4 -78 2 -16 2 -20 0 -7 -3 15 -10 22 -18 18 -8 -3 -22 9 -34 30 -12
19 -26 32 -31 29 -6 -3 -10 1 -10 10 0 9 -4 13 -10 10 -6 -4 -8 -60 -4 -153 3
-81 6 -158 6 -171 0 -28 15 -15 21 19 3 18 5 15 6 -12 0 -22 -4 -38 -10 -38
-8 0 -8 -4 0 -14 7 -9 8 -17 2 -20 -5 -3 -12 0 -14 6 -3 7 -6 -2 -6 -19 -1
-21 3 -32 12 -30 7 1 11 -6 9 -18 -2 -11 -4 -57 -5 -102 -1 -79 -9 -104 -21
-65 -8 26 -24 205 -37 417 -8 134 -8 209 -1 255 42 265 89 513 118 633 37 152
115 410 121 403 3 -2 -5 -55 -16 -118z m-80 -111 c-10 -9 -11 -8 -5 6 3 10 9
15 12 12 3 -3 0 -11 -7 -18z m-18 -48 c-8 -8 -13 -7 -18 2 -6 8 -4 10 5 4 10
-6 12 -4 6 11 -6 15 -5 17 5 7 9 -10 10 -16 2 -24z m-13 -30 c0 -6 -4 -7 -10
-4 -5 3 -10 11 -10 16 0 6 5 7 10 4 6 -3 10 -11 10 -16z m-49 -52 c-10 -9 -11
-8 -5 6 3 10 9 15 12 12 3 -3 0 -11 -7 -18z m-20 -64 c-12 -20 -14 -14 -5 12
4 9 9 14 11 11 3 -2 0 -13 -6 -23z m-34 -17 c-3 -7 1 -24 10 -37 l15 -24 -21
24 c-21 23 -21 23 -21 2 0 -13 -4 -19 -10 -16 -7 4 -4 17 7 36 18 30 29 39 20
15z m-60 -179 c-3 -18 -5 -17 -6 7 -1 22 -5 27 -17 22 -14 -6 -15 -4 -4 9 12
15 14 15 22 0 5 -8 7 -26 5 -38z m-41 -13 c-4 -9 -9 -15 -11 -12 -3 3 -3 13 1
22 4 9 9 15 11 12 3 -3 3 -13 -1 -22z m-22 -92 c3 -5 -1 -9 -9 -9 -8 0 -12 4
-9 9 3 4 7 8 9 8 2 0 6 -4 9 -8z m-34 -53 c0 -6 -4 -7 -10 -4 -5 3 -10 11 -10
16 0 6 5 7 10 4 6 -3 10 -11 10 -16z m-30 -74 c-7 -9 -15 -13 -17 -11 -6 6 20
36 26 30 2 -2 -2 -10 -9 -19z m-20 -35 c0 -5 -5 -10 -11 -10 -5 0 -7 5 -4 10
3 6 8 10 11 10 2 0 4 -4 4 -10z m1780 -35 c0 -2 -13 -11 -28 -19 -37 -19 -329
-238 -407 -304 -64 -55 -80 -63 -71 -34 3 9 7 30 10 45 4 24 3 27 -9 17 -8 -7
-12 -17 -8 -23 3 -6 1 -7 -5 -3 -17 10 -135 -96 -119 -106 7 -5 0 -7 -18 -6
-25 2 -31 -1 -33 -19 -3 -18 2 -23 17 -23 12 0 21 -5 21 -12 0 -21 -61 -77
-78 -71 -10 4 -13 1 -10 -8 5 -13 -131 -168 -149 -171 -4 -1 -14 -14 -22 -30
-8 -16 -15 -27 -18 -25 -2 2 3 17 12 33 8 16 15 39 15 52 0 13 4 20 10 17 15
-9 30 37 17 53 -13 16 0 29 15 14 16 -16 64 11 71 40 6 22 2 36 -9 26 -3 -3
-6 -15 -7 -27 -1 -11 -5 -21 -9 -21 -4 0 -8 2 -8 4 0 2 -3 13 -6 23 -5 15 -4
16 6 3 9 -12 11 -12 8 -1 -4 15 50 81 66 81 4 0 3 -7 -4 -15 -7 -8 -9 -15 -4
-15 5 0 2 -4 -6 -10 -8 -5 -11 -12 -7 -16 10 -10 28 9 31 32 3 20 46 34 46 15
0 -6 7 -8 15 -5 8 4 15 10 15 15 0 4 -7 6 -15 3 -8 -4 -15 -1 -15 5 0 33 -101
-17 -133 -67 -5 -7 -13 -10 -18 -6 -5 3 -8 2 -7 -3 2 -4 -2 -10 -7 -11 -25 -9
-33 -25 -29 -60 3 -27 1 -33 -6 -22 -5 8 -10 24 -10 35 0 16 -2 17 -9 6 -6
-10 -5 -22 4 -35 8 -11 11 -24 6 -30 -5 -6 -13 -24 -19 -41 l-10 -30 -1 31
c-1 16 4 35 9 40 7 7 6 20 -4 39 -21 40 -11 54 102 133 53 38 156 115 227 170
122 95 270 182 532 312 66 33 63 32 63 25z m-2605 -120 c134 -155 278 -306
321 -337 32 -23 43 -37 42 -54 -2 -23 -13 -23 -13 -1 0 7 -8 11 -18 11 -9 -1
-14 3 -10 9 8 14 -58 0 -72 -15 -7 -8 -5 -9 7 -5 9 3 22 -1 30 -11 12 -15 11
-16 -4 -4 -9 7 -19 9 -22 4 -7 -12 28 -44 38 -35 4 5 6 3 4 -3 -3 -13 57 -84
72 -84 5 0 6 7 3 17 -4 11 -3 14 5 9 13 -8 52 1 52 13 0 4 -10 8 -22 8 -19 2
-20 0 -8 -8 12 -8 12 -10 1 -7 -8 2 -15 11 -17 20 -1 11 3 15 14 11 10 -4 13
-2 8 5 -4 7 -2 12 3 12 6 0 11 -5 11 -11 0 -5 5 -7 11 -3 7 4 1 15 -17 31 -37
32 -16 21 67 -33 37 -24 73 -52 80 -61 10 -13 6 -11 -17 4 -19 14 -35 19 -44
13 -7 -4 -19 -6 -27 -3 -11 4 -10 8 4 18 15 11 14 13 -10 13 -15 0 -27 -6 -27
-13 0 -7 -10 -20 -22 -29 -15 -10 -17 -14 -5 -10 19 7 23 -6 7 -22 -8 -8 -6
-15 4 -23 11 -9 16 -9 22 0 4 7 3 9 -4 5 -6 -3 -13 -2 -16 3 -12 18 13 22 43
7 16 -9 31 -19 33 -23 3 -5 3 -2 2 5 -2 6 0 12 5 12 5 0 11 -22 15 -50 4 -27
11 -50 16 -50 6 0 10 -5 10 -11 0 -13 -20 1 -96 67 -32 29 -86 72 -119 96 -84
63 -141 127 -215 246 -36 56 -84 133 -108 170 -50 79 -120 214 -100 192 8 -8
45 -51 83 -95z m2625 65 c0 -5 -2 -10 -4 -10 -3 0 -8 5 -11 10 -3 6 -1 10 4
10 6 0 11 -4 11 -10z m-256 -29 c3 -5 -1 -11 -9 -14 -9 -4 -12 -1 -8 9 6 16
10 17 17 5z m-69 -10 c3 -5 1 -12 -4 -15 -5 -3 -11 1 -15 9 -6 16 9 21 19 6z
m-2368 -21 c4 -12 3 -13 -5 -1 -6 8 -17 11 -26 8 -8 -3 -18 -2 -20 2 -3 4 7 8
21 7 14 -1 28 -8 30 -16z m2330 14 c-3 -3 -12 -4 -19 -1 -8 3 -5 6 6 6 11 1
17 -2 13 -5z m73 -4 c0 -5 -5 -10 -11 -10 -5 0 -7 5 -4 10 3 6 8 10 11 10 2 0
4 -4 4 -10z m-2260 -27 c12 10 12 9 2 -4 -6 -9 -8 -20 -4 -24 4 -5 1 -5 -5 -1
-7 4 -18 17 -23 29 -10 20 -10 20 3 5 11 -14 16 -15 27 -5z m47 1 c-3 -3 -12
-4 -19 -1 -8 3 -5 6 6 6 11 1 17 -2 13 -5z m1973 -4 c-34 -11 -60 -11 -35 0
11 5 29 8 40 8 16 0 15 -2 -5 -8z m-1817 -17 c-7 -2 -19 -2 -25 0 -7 3 -2 5
12 5 14 0 19 -2 13 -5z m1742 -3 c3 -6 -1 -7 -9 -4 -18 7 -21 14 -7 14 6 0 13
-4 16 -10z m-1710 -10 c-27 -12 -43 -12 -25 0 8 5 22 9 30 9 10 0 8 -3 -5 -9z
m57 -7 c-6 -2 -10 -9 -7 -14 4 -5 -1 -6 -10 -2 -13 5 -14 7 -3 14 7 5 18 8 23
8 6 0 4 -3 -3 -6z m43 -13 c3 -6 -1 -7 -9 -4 -18 7 -21 14 -7 14 6 0 13 -4 16
-10z m52 -6 c-3 -3 -12 -4 -19 -1 -8 3 -5 6 6 6 11 1 17 -2 13 -5z m638 -13
c3 -5 1 -12 -5 -16 -5 -3 -10 1 -10 9 0 18 6 21 15 7z m-560 -11 c3 -5 1 -10
-4 -10 -6 0 -11 5 -11 10 0 6 2 10 4 10 3 0 8 -4 11 -10z m69 -19 c19 -7 19
-8 -2 -13 -12 -4 -20 -2 -17 2 3 5 -5 11 -17 13 -19 4 -20 4 -3 5 11 0 29 -3
39 -7z m503 -38 c-3 -10 -5 -2 -5 17 0 19 2 27 5 18 2 -10 2 -26 0 -35z m-20
5 c-3 -7 -5 -2 -5 12 0 14 2 19 5 13 2 -7 2 -19 0 -25z m-20 -10 c-3 -8 -6 -5
-6 6 -1 11 2 17 5 13 3 -3 4 -12 1 -19z m70 -55 c-3 -10 -5 -4 -5 12 0 17 2
24 5 18 2 -7 2 -21 0 -30z m953 -7 c0 -2 -8 -10 -17 -17 -16 -13 -17 -12 -4 4
13 16 21 21 21 13z m-1013 -73 c-3 -10 -5 -4 -5 12 0 17 2 24 5 18 2 -7 2 -21
0 -30z m70 -5 c-3 -7 -5 -2 -5 12 0 14 2 19 5 13 2 -7 2 -19 0 -25z m923 28
c0 -2 -8 -10 -17 -17 -16 -13 -17 -12 -4 4 13 16 21 21 21 13z m-50 -26 c-6
-11 -15 -20 -20 -20 -6 0 -10 -5 -10 -11 0 -5 6 -7 13 -3 6 4 5 1 -3 -7 -8 -8
-20 -20 -27 -28 -10 -11 -12 -10 -10 7 0 11 5 18 9 16 4 -3 8 0 8 7 0 9 39 58
48 59 1 0 -2 -9 -8 -20z m-1127 -127 c41 -71 86 -150 100 -178 50 -101 135
-301 142 -335 6 -32 2 -28 -40 35 -61 89 -107 145 -121 145 -5 0 -23 14 -39
30 -21 22 -31 27 -37 18 -6 -10 -8 -9 -8 2 0 9 -9 23 -20 33 -19 16 -20 16
-21 -21 -1 -33 -2 -34 -9 -12 -5 16 -8 -10 -8 -75 0 -64 2 -93 8 -80 8 19 9
19 9 -2 1 -12 6 -25 11 -28 6 -3 10 -21 11 -38 l1 -32 13 40 13 40 1 -35 c1
-25 4 -31 10 -21 7 11 10 9 14 -10 3 -18 5 -16 6 10 1 47 18 29 26 -30 7 -44
5 -47 -26 -70 -18 -12 -29 -17 -25 -10 7 10 4 11 -13 2 -11 -7 -21 -16 -21
-20 0 -5 -10 -7 -22 -4 -17 3 -19 2 -9 -5 11 -8 9 -11 -10 -18 -13 -4 -28 -8
-34 -9 -28 -2 -55 -18 -55 -33 0 -13 -2 -14 -9 -4 -6 10 -12 6 -26 -14 -13
-21 -19 -24 -26 -13 -7 10 -8 6 -5 -13 3 -20 1 -25 -9 -21 -8 2 -14 8 -13 11
2 18 -3 32 -11 32 -5 0 -7 -10 -4 -21 5 -19 3 -20 -14 -11 -11 6 -28 10 -39 8
-10 -2 -13 -1 -7 1 10 3 10 8 -1 19 -20 20 -21 19 -24 -26 -2 -38 32 -227 44
-239 3 -3 12 3 21 14 15 20 15 20 9 -1 -4 -12 0 -34 9 -50 l15 -29 1 25 c0 23
1 23 9 5 6 -17 8 -15 11 14 4 36 23 54 27 24 14 -138 21 -192 28 -212 5 -17 4
-22 -4 -17 -17 10 -15 -5 3 -31 8 -12 12 -28 9 -37 -3 -9 -1 -16 6 -16 7 0 9
-8 5 -20 -3 -11 -2 -20 3 -20 5 0 9 -6 9 -12 0 -7 4 -22 9 -32 5 -15 4 -17 -6
-11 -14 9 -7 -7 15 -35 10 -12 32 -64 113 -259 14 -34 -21 6 -72 82 -71 107
-168 303 -194 392 -12 39 -40 150 -62 248 -23 97 -50 203 -61 234 -10 31 -19
59 -19 63 0 7 262 241 299 266 20 15 21 23 21 285 0 158 4 268 9 265 5 -3 43
-63 84 -133z m246 77 c2 37 21 4 20 -35 0 -26 -2 -27 -9 -10 -11 26 -12 -2 -1
-30 7 -16 10 -12 19 25 5 25 10 36 11 25 1 -12 6 -26 12 -32 9 -9 9 -20 -1
-43 -16 -38 -20 -152 -5 -146 6 2 9 14 7 27 -2 19 0 21 8 9 5 -8 8 -26 7 -40
-2 -14 -2 -19 0 -12 8 23 23 12 23 -19 0 -20 -4 -28 -12 -23 -8 5 -9 2 -5 -9
3 -9 0 -27 -7 -41 l-12 -24 -12 31 c-14 36 -7 51 7 16 9 -21 10 -21 10 -4 1
24 -13 48 -25 44 -10 -2 -45 63 -37 71 2 2 8 -2 13 -10 8 -13 10 -12 10 2 0 9
-4 20 -10 23 -5 3 -11 21 -11 38 l-1 32 -7 -30 c-7 -28 -7 -27 -14 17 -3 26
-4 54 -1 63 4 8 1 15 -5 15 -6 0 -8 7 -4 16 5 13 7 13 14 2 5 -7 7 10 4 42 -3
44 -2 48 4 20 7 -29 9 -31 10 -10z m385 -309 c8 -151 18 -277 23 -281 4 -4 66
-16 136 -25 238 -31 293 -47 465 -130 152 -73 435 -236 448 -257 3 -5 -8 -2
-25 6 -17 9 -33 16 -36 16 -22 -1 -27 1 -22 7 4 3 -5 12 -19 20 -30 15 -46 17
-24 3 9 -6 10 -10 3 -10 -6 0 -25 13 -41 29 -20 20 -33 27 -43 21 -27 -17
-126 21 -112 43 4 7 -1 5 -11 -3 -16 -12 -19 -12 -28 4 -7 13 -17 16 -36 12
-21 -5 -24 -4 -12 4 13 9 12 11 -5 9 -11 -1 -29 0 -40 1 l-20 1 20 8 c11 5 27
6 35 4 13 -4 13 -4 0 6 -25 18 -4 22 31 6 19 -9 24 -14 12 -11 -13 2 -23 0
-23 -5 0 -5 6 -9 13 -9 6 0 23 -3 37 -5 22 -5 22 -4 5 4 -14 7 -16 10 -5 11
13 1 -108 68 -135 74 -5 2 -17 6 -25 9 -45 19 -108 37 -125 36 l-20 0 20 -9
c13 -5 -3 -8 -48 -8 -37 0 -71 -2 -74 -6 -3 -3 17 -5 46 -5 29 1 56 -2 61 -7
6 -6 -24 -8 -73 -6 -120 5 -128 4 -177 -7 l-45 -10 45 3 c25 2 56 7 70 11 14
4 20 3 14 -2 -7 -5 11 -9 43 -9 30 -1 59 -6 65 -12 7 -7 0 -8 -25 -2 -20 4
-76 5 -126 2 -69 -3 -95 -1 -108 9 -12 10 -15 10 -9 1 6 -10 1 -11 -18 -6 -14
3 -68 7 -120 8 -86 1 -94 3 -94 21 0 11 -2 47 -5 80 -4 40 -3 50 3 30 4 -16 8
-22 9 -13 0 9 6 20 12 24 7 4 9 -1 5 -15 -10 -36 -16 -67 -10 -53 3 6 12 12
20 12 8 0 14 5 14 11 0 5 4 8 9 5 5 -3 8 22 6 57 -1 34 -1 47 2 30 2 -18 8
-33 13 -33 5 0 7 -8 4 -17 -5 -15 -4 -15 5 -3 5 8 13 11 17 8 3 -4 -3 -19 -15
-34 -11 -15 -21 -31 -21 -37 0 -5 14 8 31 29 l30 38 -23 18 c-22 15 -24 25
-27 110 -1 51 0 91 2 88 3 -3 7 -35 9 -72 2 -46 7 -69 16 -73 10 -4 12 0 8 11
-3 8 -9 74 -13 144 -7 140 -14 156 -54 114 -12 -13 -20 -24 -16 -24 3 0 15 9
25 21 17 17 20 18 26 4 3 -9 2 -13 -4 -10 -6 4 -8 -10 -5 -37 3 -30 1 -37 -5
-23 -6 14 -9 -5 -9 -59 -1 -44 -3 -77 -5 -75 -8 8 -8 144 0 164 7 17 5 18 -8
8 -8 -7 -17 -11 -20 -8 -2 3 -15 -7 -29 -21 -17 -18 -19 -23 -6 -18 9 3 17 11
17 17 0 6 3 8 6 5 3 -4 -1 -17 -10 -30 -10 -16 -12 -28 -6 -38 5 -8 9 -24 9
-35 -1 -19 -2 -19 -6 -1 -4 13 -7 15 -13 7 -5 -9 -9 -8 -13 4 -4 9 -3 13 3 10
6 -3 10 1 10 10 0 9 -4 14 -9 10 -5 -3 -11 2 -13 10 -2 9 -32 -22 -78 -81 -41
-53 -85 -108 -97 -122 l-23 -27 14 46 c41 141 114 290 247 503 l74 120 7 -40
c4 -21 14 -162 22 -313z m-781 262 l47 -61 -1 -89 c0 -48 -3 -82 -6 -75 -7 18
-21 15 -26 -5 -2 -10 -4 -2 -4 17 0 19 2 29 4 23 3 -7 10 -13 16 -13 7 1 -1
12 -18 25 -16 14 -34 25 -40 25 -5 0 -2 -5 8 -11 11 -6 17 -21 16 -42 -1 -20
-3 -25 -6 -13 -3 11 -11 26 -18 33 -12 11 -13 7 -10 -24 4 -30 3 -33 -3 -13
-7 19 -10 6 -16 -58 -6 -58 -5 -87 3 -95 8 -8 11 8 12 59 l2 69 7 -73 c8 -74
19 -106 21 -61 1 18 3 15 9 -11 6 -27 8 -14 11 55 3 87 3 88 6 23 2 -38 9 -68
14 -68 6 0 9 -12 7 -27 -2 -21 -37 -56 -158 -157 -137 -116 -155 -134 -155
-161 0 -16 6 -38 13 -47 12 -14 12 -20 -2 -40 l-16 -22 -1 24 c-1 14 -2 37 -2
53 -1 21 -6 27 -22 26 -11 0 -14 -3 -7 -6 14 -5 16 -39 3 -47 -5 -4 -7 4 -4
16 5 23 5 23 -11 3 -17 -20 -17 -20 -11 5 5 22 5 23 -6 6 -13 -21 6 -132 43
-254 l19 -64 22 19 c12 10 17 11 10 3 -19 -27 -25 -74 -10 -94 13 -18 15 -17
30 14 22 43 21 53 -3 40 -15 -8 -19 -17 -14 -38 4 -21 3 -24 -5 -12 -16 23
-13 36 14 66 27 29 32 39 14 28 -7 -4 -10 -2 -8 5 3 7 8 12 13 11 5 -1 12 4
17 11 4 7 6 -7 3 -32 -2 -31 -1 -37 4 -19 8 23 9 22 15 -14 4 -27 2 -43 -8
-53 -8 -8 -15 -19 -15 -25 0 -5 -7 -7 -16 -4 -12 5 -15 2 -10 -10 3 -8 6 -22
6 -31 0 -9 6 -13 14 -10 9 4 13 -1 11 -11 -1 -9 0 -11 2 -4 3 6 8 12 12 12 4
0 6 15 5 33 -1 17 1 22 3 9 2 -12 9 -20 14 -17 5 4 9 -10 9 -30 0 -20 5 -45
11 -57 6 -11 8 -22 5 -25 -3 -3 -10 5 -15 18 -10 23 -10 23 -9 -6 0 -16 -5
-41 -11 -55 -10 -23 -11 -21 -7 15 3 22 3 33 -1 25 -3 -8 -9 -17 -14 -20 -4
-3 1 -23 12 -45 14 -29 19 -33 17 -16 -2 14 3 26 11 29 10 3 11 0 5 -9 -7 -12
-5 -12 9 0 16 13 25 2 10 -13 -9 -8 -11 -65 -3 -64 19 1 32 -3 27 -9 -4 -3 -2
-12 5 -20 6 -7 8 -16 5 -20 -4 -3 -2 -14 4 -24 6 -12 6 -26 1 -36 -12 -24 -4
-52 9 -32 6 10 9 7 8 -11 -1 -14 4 -38 10 -55 25 -71 61 -189 57 -192 -17 -17
-219 435 -250 559 -15 59 -49 180 -142 496 -13 45 -24 89 -24 96 0 8 55 61
122 118 212 178 208 174 213 243 8 98 25 365 25 393 0 29 -1 30 63 -55z m1195
52 c-3 -3 -9 2 -12 12 -6 14 -5 15 5 6 7 -7 10 -15 7 -18z m-289 -225 c1 -74
6 -164 9 -200 l7 -65 160 -8 c181 -8 219 -15 319 -59 163 -70 513 -255 503
-264 -2 -3 -26 5 -53 17 -27 12 -57 21 -68 20 -10 -2 -16 1 -13 6 3 4 -6 16
-19 26 -25 19 -33 10 -11 -12 7 -7 0 -6 -18 3 -16 9 -42 16 -57 16 -15 0 -33
6 -40 13 -7 6 -28 11 -45 10 -18 -1 -33 3 -33 9 0 6 -9 8 -21 5 -14 -4 -23 1
-29 16 -7 17 -9 18 -9 5 -1 -17 -21 -26 -21 -10 0 5 -12 9 -27 9 -57 0 -143
15 -149 25 -5 8 -1 9 12 4 10 -4 48 -9 84 -12 49 -3 60 -2 45 6 -17 9 -16 9 8
5 16 -3 34 -1 41 4 15 13 60 -15 50 -31 -4 -6 -3 -8 3 -5 5 3 26 7 46 9 38 2
41 12 7 21 -11 3 -18 1 -14 -4 3 -5 -5 -9 -18 -8 -13 0 -17 3 -10 6 6 2 12 9
12 14 0 6 -4 7 -10 4 -5 -3 -10 0 -10 7 0 11 -2 10 -9 0 -6 -11 -10 -10 -15 3
-5 14 -9 15 -20 6 -10 -8 -16 -9 -21 -1 -3 5 0 10 7 10 7 0 -2 9 -21 21 -18
11 -40 18 -48 15 -9 -4 -11 -2 -7 6 5 8 2 9 -10 5 -11 -5 -15 -3 -10 5 5 8 1
9 -12 4 -10 -4 -15 -4 -11 0 4 4 -7 14 -25 21 -20 9 -34 10 -36 4 -2 -5 -10
-7 -18 -4 -8 3 -14 1 -14 -5 0 -11 24 -22 49 -22 9 0 26 -7 37 -15 16 -12 10
-11 -31 2 -80 25 -103 27 -120 9 -15 -15 -15 -16 7 -16 18 0 20 -2 8 -10 -12
-8 -11 -10 7 -10 12 0 25 -5 28 -10 4 -6 15 -8 26 -5 11 4 19 2 19 -5 0 -6 -4
-8 -10 -5 -5 3 -10 -2 -10 -11 0 -16 -1 -16 -15 2 -9 12 -14 14 -15 6 0 -7 -5
-10 -11 -6 -8 4 -7 9 2 16 9 5 4 6 -13 2 -21 -5 -28 -2 -28 9 0 24 -62 39 -75
17 -3 -5 0 -7 8 -5 7 3 24 2 38 -3 20 -8 14 -10 -28 -10 -29 0 -53 3 -53 7 0
4 -19 5 -42 3 -30 -2 -39 0 -29 6 9 7 -1 9 -34 7 -79 -6 -187 18 -147 32 6 3
12 9 12 14 0 4 -7 5 -17 2 -11 -4 -14 -3 -9 6 5 7 14 10 21 7 7 -2 20 3 29 13
12 14 15 39 11 146 -2 72 -5 137 -7 145 -4 19 -22 24 -24 7 -3 -32 -5 -38 -26
-58 -21 -20 -21 -21 -3 -15 18 5 18 5 3 -7 -9 -7 -18 -24 -21 -37 -3 -19 -5
-16 -6 11 -1 23 6 44 19 59 11 13 20 27 20 32 0 5 -11 -4 -25 -19 l-24 -28 -1
76 c0 76 0 76 53 149 l52 73 5 -49 c3 -27 7 -110 9 -184z m-1264 181 c3 -5 2
-12 -3 -15 -5 -3 -9 1 -9 9 0 17 3 19 12 6z m-51 -29 c2 -4 -4 -8 -14 -8 -10
0 -16 4 -14 8 3 4 9 8 14 8 5 0 11 -4 14 -8z m325 -102 c-1 -40 -16 -133 -18
-108 0 9 -7 19 -13 21 -10 4 -10 8 1 15 12 9 12 14 -3 36 -20 31 -21 31 -22 9
-1 -10 -7 -58 -14 -106 -6 -49 -9 -91 -6 -94 3 -4 6 4 6 16 0 13 4 19 10 16 6
-4 10 -14 9 -23 -3 -35 2 -48 11 -27 8 18 9 17 9 -7 1 -28 -8 -38 -204 -202
-49 -42 -97 -76 -105 -76 -9 0 -21 -5 -28 -12 -9 -9 -13 -7 -18 5 -8 22 -33
22 -64 0 l-25 -17 19 22 c18 21 18 21 -12 17 -38 -4 -54 -13 -47 -25 3 -5 0
-12 -6 -16 -8 -4 -9 -3 -5 4 4 7 3 12 -2 12 -19 0 -101 -102 -95 -118 5 -11 3
-13 -8 -7 -8 5 -7 1 4 -12 9 -11 17 -25 17 -32 0 -7 5 -9 10 -6 7 4 7 13 0 25
-9 16 -8 18 6 13 11 -4 15 -3 10 5 -3 6 -1 14 5 18 8 4 9 3 5 -4 -10 -16 7
-15 23 1 7 6 12 8 11 2 -5 -24 2 -26 26 -10 14 9 28 14 31 12 3 -3 -8 -12 -25
-21 -16 -8 -32 -12 -36 -9 -3 4 -6 1 -6 -5 0 -7 -5 -12 -11 -12 -5 0 -7 5 -3
12 4 7 3 8 -5 4 -6 -4 -9 -11 -6 -16 3 -4 -6 -15 -20 -24 -14 -9 -25 -13 -25
-9 0 5 -4 3 -8 -2 -4 -6 -25 -21 -46 -34 -26 -14 -35 -17 -27 -7 11 13 11 16
-3 16 -9 0 -16 -8 -16 -17 0 -15 -2 -16 -10 -3 -11 18 13 35 36 26 17 -7 60
18 68 40 4 9 -4 7 -23 -7 -16 -12 -34 -18 -40 -15 -6 4 -21 0 -34 -9 -13 -8
-28 -12 -32 -8 -5 5 -3 0 4 -9 7 -10 10 -18 6 -18 -4 0 -2 -7 5 -16 11 -13 10
-16 -8 -21 -12 -3 -22 -9 -22 -14 0 -5 -7 -5 -17 -2 -10 4 -14 2 -9 -5 9 -15
-33 -37 -46 -24 -12 12 -40 4 -32 -9 3 -5 10 -6 16 -3 7 5 8 2 4 -5 -5 -7 -14
-10 -22 -7 -13 5 -19 -6 -15 -27 1 -5 -3 -6 -9 -2 -6 3 -7 11 -4 17 5 7 2 8
-5 4 -7 -5 -10 -14 -7 -22 6 -17 -10 -19 -20 -3 -8 13 137 162 328 335 123
112 148 130 240 173 57 26 136 61 177 76 48 19 76 36 81 50 9 23 28 183 37
311 l6 88 33 -40 c25 -28 34 -48 33 -74z m-323 54 c1 -9 0 -13 -4 -10 -3 4 -7
14 -8 22 -1 9 0 13 4 10 3 -4 7 -14 8 -22z m870 -32 c1 -38 -1 -43 -9 -25 -8
17 -3 73 6 73 1 0 2 -21 3 -48z m534 18 c0 -5 -5 -10 -11 -10 -5 0 -7 5 -4 10
3 6 8 10 11 10 2 0 4 -4 4 -10z m27 -5 c0 -8 -4 -15 -9 -15 -4 0 -8 7 -8 15 0
8 4 15 8 15 5 0 9 -7 9 -15z m-1227 -72 c0 -15 2 -16 11 -3 8 11 9 9 3 -10 -4
-14 -7 -41 -6 -60 1 -33 1 -34 -9 -10 -6 14 -8 33 -5 44 3 10 -2 32 -10 47
-18 36 -18 44 1 25 8 -8 15 -23 15 -33z m85 -13 c3 -5 1 -10 -4 -10 -6 0 -11
5 -11 10 0 6 2 10 4 10 3 0 8 -4 11 -10z m982 -92 c-2 -13 -4 -3 -4 22 0 25 2
35 4 23 2 -13 2 -33 0 -45z m-20 -60 c-3 -7 -5 -2 -5 12 0 14 2 19 5 13 2 -7
2 -19 0 -25z m-170 -30 c-3 -7 -5 -2 -5 12 0 14 2 19 5 13 2 -7 2 -19 0 -25z
m-520 -50 c-3 -7 -5 -2 -5 12 0 14 2 19 5 13 2 -7 2 -19 0 -25z m50 -70 c-2
-18 -4 -4 -4 32 0 36 2 50 4 33 2 -18 2 -48 0 -65z m1596 75 c-7 -2 -19 -2
-25 0 -7 3 -2 5 12 5 14 0 19 -2 13 -5z m-946 -50 c-3 -10 -5 -2 -5 17 0 19 2
27 5 18 2 -10 2 -26 0 -35z m-220 15 c-3 -8 -6 -5 -6 6 -1 11 2 17 5 13 3 -3
4 -12 1 -19z m50 -30 c-3 -7 -5 -2 -5 12 0 14 2 19 5 13 2 -7 2 -19 0 -25z
m-20 -15 c-3 -10 -5 -4 -5 12 0 17 2 24 5 18 2 -7 2 -21 0 -30z m-540 -5 c-3
-8 -6 -5 -6 6 -1 11 2 17 5 13 3 -3 4 -12 1 -19z m1128 -48 c13 -6 15 -9 5 -9
-8 0 -22 4 -30 9 -18 12 -2 12 25 0z m-655 -30 c6 -11 14 -59 17 -105 l6 -85
31 0 c28 0 24 -5 -54 -56 -128 -83 -120 -80 -113 -37 9 58 -4 35 -15 -27 -8
-42 -7 -51 1 -39 14 17 58 49 69 49 14 0 8 -95 -7 -117 -14 -20 -13 -21 13
-19 15 0 80 -5 145 -13 l117 -14 46 32 c25 18 47 32 48 30 5 -5 -40 -152 -53
-178 -6 -11 -57 -58 -112 -103 -55 -46 -128 -107 -162 -135 -94 -80 -143 -113
-168 -113 -26 0 -214 123 -324 211 -41 33 -75 61 -75 62 -1 1 -6 45 -13 99
l-13 96 102 16 c57 9 129 16 161 16 44 1 54 3 41 11 -13 7 -18 23 -18 60 0 46
1 49 20 39 11 -6 26 -23 34 -38 19 -34 20 -20 2 38 -8 25 -15 37 -15 28 -1
-10 -4 -18 -7 -18 -4 0 -50 35 -102 77 l-96 77 70 33 c49 24 69 39 70 53 1 11
2 29 3 40 2 30 24 34 99 21 60 -11 74 -10 127 8 80 26 112 26 125 1z m805 2
c-3 -3 -11 0 -18 7 -9 10 -8 11 6 5 10 -3 15 -9 12 -12z m-708 -24 c-3 -7 -5
-2 -5 12 0 14 2 19 5 13 2 -7 2 -19 0 -25z m750 16 c-3 -3 -12 -4 -19 -1 -8 3
-5 6 6 6 11 1 17 -2 13 -5z m-1927 -94 c0 -5 -5 -10 -11 -10 -5 0 -7 5 -4 10
3 6 8 10 11 10 2 0 4 -4 4 -10z m-30 -14 c0 -2 -17 -15 -37 -27 -21 -13 -44
-27 -50 -32 -7 -4 -13 -6 -13 -3 0 4 90 66 97 66 2 0 3 -2 3 -4z m47 -12 c-3
-3 -12 -4 -19 -1 -8 3 -5 6 6 6 11 1 17 -2 13 -5z m10 -29 c0 -8 -4 -12 -9 -9
-4 3 -8 1 -8 -4 0 -15 -48 -33 -56 -20 -4 7 -3 8 4 4 7 -4 12 -2 12 3 0 6 5
11 11 11 6 0 17 7 25 15 19 19 21 19 21 0z m-187 -15 c-14 -11 -29 -20 -35
-20 -5 0 4 9 20 20 38 25 48 25 15 0z m685 10 c-3 -5 -12 -10 -18 -10 -7 0 -6
4 3 10 19 12 23 12 15 0z m1142 4 c-3 -3 -12 -4 -19 -1 -8 3 -5 6 6 6 11 1 17
-2 13 -5z m96 -1 c-7 -2 -19 -2 -25 0 -7 3 -2 5 12 5 14 0 19 -2 13 -5z
m-1823 -8 c0 -2 -10 -9 -22 -15 -22 -11 -22 -10 -4 4 21 17 26 19 26 11z
m1755 -5 c-3 -5 2 -10 11 -10 10 0 15 -2 12 -5 -3 -3 -20 -2 -39 2 -33 7 -33
7 -9 14 14 4 26 7 28 8 2 1 0 -3 -3 -9z m-1095 -35 c14 -17 16 -17 -45 5 -22
9 -26 13 -15 20 15 10 39 0 60 -25z m695 19 c-24 -10 -145 -41 -145 -37 0 11
89 42 120 42 19 0 31 -2 25 -5z m-1350 -14 c3 -5 1 -10 -4 -10 -6 0 -11 5 -11
10 0 6 2 10 4 10 3 0 8 -4 11 -10z m1483 -80 c-21 -65 -34 -91 -49 -95 -11 -4
-23 -5 -25 -2 -7 7 41 122 66 157 36 51 38 34 8 -60z m55 66 c-10 -13 -19 -23
-21 -21 -7 6 19 45 29 45 5 0 2 -11 -8 -24z m108 -26 c6 -34 14 -17 11 23 -1
9 3 17 8 17 6 0 10 -28 10 -61 l0 -61 -101 -97 c-131 -124 -161 -140 -137 -70
13 39 24 49 54 49 11 0 29 10 40 23 10 12 12 16 4 10 -8 -7 -30 -13 -49 -13
l-34 0 23 25 c29 31 45 32 29 3 -12 -23 -12 -23 10 -4 22 20 28 46 11 46 -5 0
-10 5 -10 10 0 6 9 10 19 10 11 0 23 5 26 10 4 6 -5 10 -19 10 -28 0 -34 18
-14 38 18 18 30 14 23 -8 -9 -30 4 -24 15 6 7 19 7 31 -1 40 -9 11 -7 15 6 20
20 8 35 -11 35 -44 0 -13 4 -21 9 -18 5 3 5 22 1 42 -7 30 -6 35 8 32 10 -2
19 -17 23 -38z m306 34 c-3 -3 -12 -4 -19 -1 -8 3 -5 6 6 6 11 1 17 -2 13 -5z
m-543 -96 c-17 -63 -32 -98 -46 -109 -31 -24 -91 -29 -180 -17 l-78 11 0 63 0
64 33 -33 c17 -18 29 -28 25 -23 -14 18 -8 33 18 45 35 16 41 7 21 -33 -19
-40 -12 -46 53 -46 32 0 47 7 80 38 47 46 51 69 13 75 l-28 4 33 8 c22 5 32
13 32 26 0 13 7 19 24 19 l25 0 -25 -92z m-743 61 c44 -15 44 -16 29 -34 -25
-30 -80 -12 -80 27 0 21 6 22 51 7z m-94 -23 c4 -3 -6 -6 -20 -6 -30 0 -36
-20 -12 -40 9 -7 15 -8 15 -2 0 5 14 15 31 21 28 10 30 9 24 -12 -4 -12 -13
-27 -21 -33 -7 -6 -11 -14 -7 -17 12 -13 21 -7 27 18 10 38 29 31 21 -6 l-7
-32 48 6 c39 4 55 12 81 41 l33 36 0 -59 0 -60 -57 -8 c-32 -4 -86 -8 -120 -8
-84 0 -99 16 -108 112 l-7 71 37 -8 c20 -5 39 -11 42 -14z m723 15 c0 -16 -30
-41 -49 -41 -17 0 -41 18 -41 31 0 9 26 16 63 18 15 0 27 -3 27 -8z m-991 -76
c0 -5 -4 -3 -9 5 -5 8 -9 22 -9 30 0 16 17 -16 18 -35z m88 23 c-3 -8 -6 -5
-6 6 -1 11 2 17 5 13 3 -3 4 -12 1 -19z m50 -10 c-3 -7 -5 -2 -5 12 0 14 2 19
5 13 2 -7 2 -19 0 -25z m41 -8 c0 -22 -4 -42 -8 -45 -4 -3 -7 15 -6 40 0 25 4
45 8 45 4 0 6 -18 6 -40z m-111 -2 c-3 -8 -6 -5 -6 6 -1 11 2 17 5 13 3 -3 4
-12 1 -19z m1119 -20 c-9 -12 -16 -19 -16 -15 0 11 24 47 28 42 2 -2 -3 -14
-12 -27z m724 22 c8 -5 11 -10 5 -10 -5 0 -17 5 -25 10 -8 5 -10 10 -5 10 6 0
17 -5 25 -10z m-1813 -32 c-3 -7 -5 -2 -5 12 0 14 2 19 5 13 2 -7 2 -19 0 -25z
m825 7 c-2 -14 -8 -25 -13 -25 -10 0 -11 12 -3 34 10 25 22 19 16 -9z m-898
-60 c7 -48 -8 -19 -18 35 -5 23 -4 30 2 20 5 -8 12 -33 16 -55z m63 -17 c-3
-8 -6 -5 -6 6 -1 11 2 17 5 13 3 -3 4 -12 1 -19z m-90 -10 c-3 -8 -6 -5 -6 6
-1 11 2 17 5 13 3 -3 4 -12 1 -19z m180 0 c-3 -8 -6 -5 -6 6 -1 11 2 17 5 13
3 -3 4 -12 1 -19z m-217 -42 c0 -26 -6 -18 -14 19 -5 22 -4 26 4 15 5 -8 10
-24 10 -34z m-740 -25 c0 -4 -18 -19 -41 -34 l-41 -27 32 40 c28 35 50 45 50
21z m572 -22 c93 -40 126 -66 134 -107 l7 -33 -57 22 c-32 11 -59 19 -62 16
-3 -2 7 -44 21 -92 26 -90 50 -223 42 -231 -22 -22 -124 167 -175 326 -46 145
-46 143 -12 136 16 -3 62 -19 102 -37z m-105 -128 c23 -65 74 -176 112 -247
51 -95 70 -141 73 -174 l3 -45 -36 -3 c-27 -2 -38 1 -43 14 -14 37 -99 152
-143 194 l-46 45 51 -61 c52 -61 63 -84 40 -84 -7 -1 -26 -7 -43 -15 -29 -13
-28 -13 21 -8 48 5 53 3 69 -21 10 -15 16 -28 14 -30 -2 -1 -30 -17 -61 -35
l-58 -32 -42 38 c-23 21 -69 63 -103 93 -33 30 -83 74 -110 97 -28 22 -47 44
-44 48 4 3 46 14 93 24 47 9 91 22 97 28 5 5 23 55 39 111 33 113 59 182 69
182 3 0 25 -53 48 -119z m1659 -28 c-3 -10 -15 -58 -26 -108 -12 -49 -35 -141
-53 -202 -31 -112 -32 -113 -62 -113 -26 -1 -28 -2 -12 -11 11 -6 69 -15 130
-20 62 -5 118 -10 125 -12 7 -1 -10 -20 -40 -42 -115 -87 -193 -162 -249 -238
l-59 -81 0 92 c0 102 -28 202 -76 275 -21 32 -23 41 -12 55 7 9 13 18 14 20 0
1 31 -7 68 -19 38 -11 70 -18 73 -15 3 2 -21 13 -52 22 -97 31 -104 70 -46
259 19 60 28 75 66 103 53 41 83 50 158 51 51 1 58 -1 53 -16z m54 -77 c0 -6
-13 -20 -28 -30 l-27 -20 18 21 c13 15 17 29 11 45 -6 20 -5 21 10 9 9 -7 16
-19 16 -25z m-1300 -22 c0 -8 -4 -12 -10 -9 -5 3 -10 10 -10 16 0 5 5 9 10 9
6 0 10 -7 10 -16z m-165 -14 c10 -11 16 -20 13 -20 -3 0 -13 9 -23 20 -10 11
-16 20 -13 20 3 0 13 -9 23 -20z m1129 5 c-4 -8 -12 -15 -20 -15 -17 0 -18 17
-1 23 22 9 27 7 21 -8z m-1063 -67 c12 -35 38 -96 56 -137 18 -40 33 -77 33
-81 0 -8 -50 -24 -56 -17 -2 2 -15 61 -29 133 -14 71 -28 137 -31 147 -3 9 -3
17 -1 17 3 0 15 -28 28 -62z m879 -7 c0 -75 -14 -91 -80 -91 -43 0 -48 2 -53
26 -4 21 5 33 57 75 33 27 64 49 68 49 5 0 8 -27 8 -59z m165 38 c4 -6 5 -13
2 -15 -7 -8 -57 7 -57 17 0 13 47 11 55 -2z m-730 -37 c-9 -9 -35 8 -35 24 0
16 2 16 20 -1 11 -10 18 -20 15 -23z m118 21 c18 -9 49 -27 70 -41 36 -24 37
-25 17 -39 -11 -8 -20 -20 -20 -27 0 -10 -14 -12 -52 -8 -54 5 -72 16 -63 40
3 8 5 31 5 53 0 21 2 39 5 39 4 0 20 -7 38 -17z m-314 -20 c0 -25 -1 -25 -8
-8 -5 11 -7 23 -4 28 8 14 13 7 12 -20z m71 -58 c24 -44 47 -85 52 -92 6 -7 5
-19 -1 -32 -6 -11 -9 -26 -6 -33 2 -7 -4 -24 -14 -38 l-19 -25 -6 25 c-39 186
-58 286 -53 279 2 -2 23 -40 47 -84z m819 69 c17 -4 31 -11 31 -16 0 -12 -70
-1 -84 13 -12 11 8 12 53 3z m1185 -121 c-50 -76 -87 -143 -90 -164 l-6 -37
-142 -4 c-139 -5 -143 -6 -268 -52 -206 -77 -323 -156 -447 -301 -40 -47 -43
-48 -36 -20 16 74 67 135 210 250 77 62 162 134 189 160 54 51 148 102 308
166 120 49 338 128 354 128 6 1 -26 -56 -72 -126z m-1201 90 c28 -6 44 -20 34
-30 -8 -7 -107 17 -107 26 0 14 14 22 29 16 9 -4 28 -9 44 -12z m-653 -8 c11
-13 9 -15 -13 -15 -14 0 -27 7 -31 15 -3 10 1 15 13 15 10 0 24 -7 31 -15z
m678 -59 c2 -9 1 -16 -1 -16 -16 0 -94 40 -105 53 -11 13 -5 13 45 -3 35 -11
59 -24 61 -34z m-663 24 c-3 -5 -15 -10 -26 -10 -10 0 -19 5 -19 10 0 6 12 10
26 10 14 0 23 -4 19 -10z m973 -46 c-14 -14 -15 -14 -10 11 3 19 8 23 15 16 8
-8 7 -16 -5 -27z m-1358 0 c0 -8 -5 -12 -10 -9 -6 4 -8 11 -5 16 9 14 15 11
15 -7z m1040 -16 c0 -6 -6 -5 -15 2 -8 7 -15 14 -15 16 0 2 7 1 15 -2 8 -4 15
-11 15 -16z m-603 -34 c2 -7 -6 -10 -21 -7 -14 3 -23 10 -20 15 8 12 36 6 41
-8z m451 -2 c4 -12 -37 -33 -51 -25 -4 2 -2 13 4 24 11 22 40 22 47 1z m-308
-77 c5 -11 10 -29 12 -40 3 -18 12 -20 86 -23 77 -3 102 -12 66 -26 -20 -8
-158 -8 -178 0 -18 7 -22 66 -9 125 7 30 8 31 11 9 1 -14 7 -34 12 -45z m-419
-46 c30 -61 32 -85 13 -151 -7 -23 -35 -23 -65 0 -13 10 -80 45 -149 77 -69
31 -129 61 -133 65 -5 4 18 11 50 14 76 9 186 34 250 55 2 1 17 -27 34 -60z
m-346 21 c4 -6 -7 -10 -24 -10 -43 0 -39 -14 9 -33 32 -12 44 -24 60 -62 21
-49 25 -81 12 -89 -19 -11 -375 26 -510 55 -81 17 -163 33 -182 37 -62 12 88
20 267 14 124 -4 166 -2 178 8 22 19 158 89 172 90 6 0 15 -4 18 -10z m1225
-56 c0 -13 -5 -26 -12 -30 -7 -4 -8 -3 -4 5 4 6 0 25 -8 43 -21 41 -20 45 4
23 11 -10 20 -28 20 -41z m-539 26 c22 0 29 -5 29 -20 0 -25 38 -32 150 -28
77 3 86 5 95 26 8 18 18 22 57 22 27 0 48 -3 48 -7 0 -5 -9 -32 -18 -62 -17
-48 -22 -55 -63 -71 -54 -21 -119 -60 -100 -60 8 0 31 11 50 24 20 13 49 27
64 30 26 6 28 5 22 -16 -15 -50 -32 -70 -71 -88 l-41 -18 -44 34 c-24 19 -55
43 -67 54 -13 11 -36 23 -50 26 -15 3 -45 15 -67 25 -36 16 -44 27 -63 80
l-22 62 31 -7 c17 -3 44 -6 60 -6z m-92 -65 c35 -49 31 -53 -28 -29 -38 15
-39 17 -29 45 5 16 13 29 17 29 4 0 22 -20 40 -45z m1641 21 c0 -2 -32 -23
-70 -46 -39 -23 -72 -46 -75 -49 -2 -4 33 -38 78 -76 44 -38 76 -70 71 -72
-21 -7 -175 35 -195 53 -11 9 -35 48 -53 84 l-35 67 62 18 c34 9 65 18 70 19
19 3 147 5 147 2z m-2138 -20 c20 -14 50 -91 41 -100 -14 -14 -24 -3 -53 54
-30 60 -26 75 12 46z m566 -73 c35 -12 41 -18 31 -29 -20 -24 -68 -17 -100 15
-16 16 -29 32 -29 35 0 8 43 -1 98 -21z m402 4 c0 -26 -21 -87 -30 -87 -13 0
-12 24 1 71 11 35 29 45 29 16z m64 -1 c-6 -14 -33 -30 -41 -23 -9 10 11 37
28 37 12 0 16 -5 13 -14z m-865 -10 c9 -11 7 -15 -9 -19 -28 -7 -62 -87 -68
-164 -5 -70 -19 -88 -58 -79 -27 7 -27 7 -21 84 2 43 12 94 20 114 25 60 107
99 136 64z m231 -16 c22 -14 8 -20 -34 -13 -26 4 -33 9 -24 14 17 11 39 11 58
-1z m267 -18 c9 -6 6 -17 -13 -43 -17 -24 -28 -59 -35 -105 -10 -75 -17 -88
-45 -82 -29 5 -31 90 -4 152 28 67 67 97 97 78z m299 -91 c-21 -40 -29 -40
-21 2 10 42 15 51 27 39 6 -6 4 -21 -6 -41z m-598 -43 c20 -20 14 -56 -13 -74
-23 -15 -27 -15 -50 0 -26 17 -27 43 -3 74 13 15 50 16 66 0z m1872 -68 c11 0
10 -3 -4 -11 -13 -8 -20 -8 -26 0 -4 7 -19 10 -36 6 -24 -4 -25 -4 -9 4 11 6
29 8 40 6 11 -3 27 -5 35 -5z m-240 -60 c-8 -5 -19 -10 -25 -10 -5 0 -3 5 5
10 8 5 20 10 25 10 6 0 3 -5 -5 -10z m95 0 c-27 -12 -43 -12 -25 0 8 5 22 9
30 9 10 0 8 -3 -5 -9z m-155 -20 c-8 -5 -19 -10 -25 -10 -5 0 -3 5 5 10 8 5
20 10 25 10 6 0 3 -5 -5 -10z m-1550 -95 c-7 -8 -23 -15 -35 -15 -12 0 -28 7
-35 15 -11 13 -6 15 35 15 41 0 46 -2 35 -15z m1839 -5 c-25 -15 -140 -40
-179 -39 -23 0 -3 7 55 20 50 10 95 21 100 23 6 3 17 5 25 5 12 0 12 -1 -1 -9z"/>
<path d="M1917 2233 c-4 -3 -7 -13 -7 -22 1 -13 3 -13 11 2 11 19 8 33 -4 20z"/>
<path d="M2727 2326 c-8 -21 8 -40 20 -24 8 9 7 16 -2 25 -10 9 -14 9 -18 -1z"/>
<path d="M2672 2251 c-7 -17 -26 -36 -43 -43 -16 -7 -29 -20 -29 -29 0 -9 -9
-24 -20 -34 -11 -10 -20 -23 -20 -29 0 -6 10 2 22 17 12 16 43 50 70 77 26 26
48 52 48 59 0 21 -15 11 -28 -18z"/>
<path d="M1286 2262 c-2 -4 4 -8 14 -8 10 0 16 4 14 8 -3 4 -9 8 -14 8 -5 0
-11 -4 -14 -8z"/>
<path d="M1305 2140 c-3 -5 1 -10 10 -10 9 0 14 -3 12 -7 -2 -5 7 -19 21 -33
14 -14 20 -17 13 -8 -7 9 -9 23 -5 29 4 7 3 9 -4 5 -6 -3 -13 3 -17 14 -7 22
-20 26 -30 10z"/>
<path d="M1532 1275 c0 -16 2 -22 5 -12 2 9 2 23 0 30 -3 6 -5 -1 -5 -18z"/>
<path d="M1470 1226 c5 -13 7 -27 4 -30 -2 -3 0 -3 6 2 11 9 2 52 -11 52 -5 0
-4 -11 1 -24z"/>
<path d="M1493 1192 c-10 -44 5 -105 24 -98 7 3 13 -2 13 -10 0 -9 -5 -12 -11
-8 -8 4 -9 -1 -4 -17 15 -47 20 -47 22 2 1 36 -3 49 -13 49 -16 0 -19 16 -4
25 6 3 10 14 10 23 -1 12 -5 10 -15 -8 -10 -18 -14 -20 -15 -8 0 9 7 23 15 32
20 19 19 30 -1 22 -14 -5 -15 -4 -5 8 7 8 8 17 3 20 -5 3 -14 -11 -19 -32z"/>
<path d="M1542 1165 c0 -16 2 -22 5 -12 2 9 2 23 0 30 -3 6 -5 -1 -5 -18z"/>
<path d="M1530 1126 c0 -2 7 -7 16 -10 8 -3 12 -2 9 4 -6 10 -25 14 -25 6z"/>
<path d="M1548 1010 c2 -22 8 -40 13 -40 5 0 9 -7 9 -16 0 -8 7 -22 15 -30 8
-9 15 -11 15 -5 0 5 -4 13 -10 16 -5 3 -10 17 -10 31 0 13 -5 24 -11 24 -6 0
-9 7 -5 15 6 16 -2 45 -13 45 -4 0 -5 -18 -3 -40z"/>
<path d="M2020 2304 c0 -8 5 -12 10 -9 6 3 10 10 10 16 0 5 -4 9 -10 9 -5 0
-10 -7 -10 -16z"/>
<path d="M1982 2275 c0 -16 2 -22 5 -12 2 9 2 23 0 30 -3 6 -5 -1 -5 -18z"/>
<path d="M2000 2244 c0 -16 5 -36 10 -44 6 -10 7 -2 3 25 -7 49 -13 58 -13 19z"/>
<path d="M2277 1679 c-9 -5 -22 -7 -27 -4 -16 10 -12 0 11 -26 l21 -24 -7 24
c-6 20 -4 23 9 18 10 -4 16 -1 16 8 0 17 0 17 -23 4z"/>
<path d="M3156 1520 c24 -9 41 -30 25 -30 -5 0 -13 5 -16 10 -3 6 -11 10 -18
10 -18 0 10 -23 30 -25 10 0 23 -4 29 -8 6 -3 11 0 11 8 0 8 -4 15 -9 15 -5 0
-16 7 -24 15 -9 8 -23 15 -32 14 -13 0 -12 -2 4 -9z"/>
<path d="M1375 1201 c-3 -5 -1 -12 5 -16 5 -3 10 1 10 9 0 18 -6 21 -15 7z"/>
<path d="M1340 1155 c0 -5 5 -17 10 -25 5 -8 10 -10 10 -5 0 6 -5 17 -10 25
-5 8 -10 11 -10 5z"/>
<path d="M1406 1068 c-8 -18 -16 -27 -16 -20 0 7 -7 20 -15 28 -19 19 -19 5 0
-19 7 -11 11 -26 8 -35 -4 -10 1 -8 15 6 20 20 41 72 29 72 -2 0 -12 -15 -21
-32z"/>
<path d="M1483 789 c-2 -23 3 -25 10 -4 4 8 3 16 -1 19 -4 3 -9 -4 -9 -15z"/>
<path d="M3170 1689 c-14 -4 -18 -8 -10 -9 56 -8 67 -7 67 4 0 13 -21 15 -57
5z"/>
<path d="M3270 1666 c0 -2 6 -9 14 -15 11 -9 16 -9 22 0 4 8 3 9 -4 5 -7 -4
-12 -2 -12 3 0 6 -4 11 -10 11 -5 0 -10 -2 -10 -4z"/>
<path d="M3238 1653 c7 -3 16 -2 19 1 4 3 -2 6 -13 5 -11 0 -14 -3 -6 -6z"/>
<path d="M832 1525 c-11 -14 -24 -25 -30 -25 -5 0 -16 -8 -23 -17 -13 -16 -12
-17 3 -5 9 7 22 12 30 11 20 -4 56 10 61 24 2 7 -1 18 -9 24 -10 10 -17 8 -32
-12z m23 -5 c-3 -5 -12 -10 -18 -10 -7 0 -6 4 3 10 19 12 23 12 15 0z"/>
<path d="M701 1406 c-18 -19 -30 -39 -26 -45 3 -6 11 -9 16 -5 5 3 7 10 4 15
-4 5 -1 9 5 9 6 0 9 4 5 9 -3 5 -1 12 5 16 5 3 10 1 10 -4 0 -6 5 -11 11 -11
5 0 7 5 3 11 -4 8 1 9 17 5 21 -6 21 -5 6 4 -9 6 -15 15 -12 21 14 22 -14 6
-44 -25z"/>
<path d="M1984 1475 c0 -55 1 -76 3 -47 2 29 2 74 0 100 -2 26 -3 2 -3 -53z"/>
<path d="M2011 1530 c-1 -14 -4 -52 -6 -85 -4 -56 -4 -58 6 -20 5 22 8 60 6
85 -2 25 -4 34 -6 20z"/>
<path d="M1922 1495 c0 -16 2 -22 5 -12 2 9 2 23 0 30 -3 6 -5 -1 -5 -18z"/>
<path d="M1952 1480 c0 -19 4 -46 8 -60 7 -23 8 -22 8 10 0 19 -4 46 -8 60 -7
23 -8 22 -8 -10z"/>
<path d="M2035 1455 c-4 -25 -5 -48 -2 -51 3 -3 9 15 12 41 4 25 5 48 2 51 -3
3 -9 -15 -12 -41z"/>
<path d="M1931 1450 c0 -8 4 -24 9 -35 l9 -20 0 20 c0 11 -4 27 -9 35 -9 13
-10 13 -9 0z"/>
<path d="M1966 1293 c9 -64 -8 -77 -22 -18 l-13 50 6 -45 c5 -42 50 -147 54
-125 0 6 1 37 1 70 0 44 2 53 8 35 6 -20 8 -15 9 25 0 42 -2 47 -12 33 -12
-15 -14 -15 -25 0 -10 14 -11 9 -6 -25z"/>
<path d="M2023 1270 c0 -25 2 -35 4 -22 2 12 2 32 0 45 -2 12 -4 2 -4 -23z"/>
<path d="M2052 1280 c0 -19 2 -27 5 -17 2 9 2 25 0 35 -3 9 -5 1 -5 -18z"/>
<path d="M1901 1284 c0 -11 3 -14 6 -6 3 7 2 16 -1 19 -3 4 -6 -2 -5 -13z"/>
<path d="M2081 1288 c0 -9 -4 -25 -7 -35 -5 -17 -5 -17 6 0 6 10 9 25 7 35 -4
15 -5 15 -6 0z"/>
<path d="M1870 1278 c0 -9 5 -20 10 -23 13 -8 13 5 0 25 -8 13 -10 13 -10 -2z"/>
<path d="M2111 1278 c0 -9 -4 -25 -7 -35 -5 -17 -5 -17 6 0 6 10 9 25 7 35 -4
15 -5 15 -6 0z"/>
<path d="M2146 1265 c-3 -9 -6 -22 -5 -28 0 -7 5 -1 10 12 5 13 8 26 5 28 -2
2 -6 -3 -10 -12z"/>
<path d="M1847 1249 c4 -13 8 -18 11 -10 2 7 -1 18 -6 23 -8 8 -9 4 -5 -13z"/>
<path d="M2176 1255 c-9 -26 -7 -32 5 -12 6 10 9 21 6 23 -2 3 -7 -2 -11 -11z"/>
<path d="M1911 1244 c0 -11 3 -14 6 -6 3 7 2 16 -1 19 -3 4 -6 -2 -5 -13z"/>
<path d="M1925 1075 c24 -8 164 -11 159 -3 -3 4 -42 8 -87 7 -45 0 -77 -2 -72
-4z"/>
<path d="M958 723 c7 -3 16 -2 19 1 4 3 -2 6 -13 5 -11 0 -14 -3 -6 -6z"/>
<path d="M1960 209 c-1 -16 54 -127 73 -147 12 -12 41 -28 64 -34 24 -6 43
-13 43 -17 0 -3 28 -7 63 -8 77 -2 60 9 -48 32 -92 19 -110 32 -160 119 -19
34 -34 58 -35 55z"/>
<path d="M3781 163 c0 -6 -4 -20 -7 -30 -5 -14 -4 -15 5 -7 7 7 11 20 8 30 -3
11 -5 14 -6 7z"/>
<path d="M3225 140 c-13 -6 -15 -9 -5 -9 8 0 22 4 30 9 18 12 2 12 -25 0z"/>
<path d="M3142 113 c-24 -8 -41 -17 -39 -19 4 -5 97 26 97 32 0 6 -11 4 -58
-13z"/>
<path d="M3056 74 c-6 -15 -4 -15 11 -3 10 7 20 15 22 16 2 2 -3 3 -11 3 -9 0
-19 -7 -22 -16z"/>
<path d="M2 31 l-1 -31 132 1 132 0 -105 25 c-173 41 -157 40 -158 5z"/>
<path d="M3025 30 c-10 -11 -16 -22 -14 -24 2 -2 12 7 22 20 22 29 17 32 -8 4z"/>
<path d="M3532 38 c-32 -16 -22 -32 21 -36 37 -3 42 2 31 32 -7 18 -20 19 -52
4z"/>
<path d="M2927 23 c-4 -3 -7 -11 -7 -17 0 -6 5 -5 12 2 6 6 9 14 7 17 -3 3 -9
2 -12 -2z"/>
</g>
</svg>
